<svg width="28" height="28" viewBox="0 0 28 28" fill="none" xmlns="http://www.w3.org/2000/svg">
<path d="M11.165 21.9568C10.9433 21.9568 10.7217 21.8751 10.5467 21.7001L3.46499 14.6185C3.12666 14.2801 3.12666 13.7201 3.46499 13.3818L10.5467 6.30014C10.885 5.9618 11.445 5.9618 11.7833 6.30014C12.1217 6.63847 12.1217 7.19847 11.7833 7.5368L5.31999 14.0001L11.7833 20.4635C12.1217 20.8018 12.1217 21.3618 11.7833 21.7001C11.62 21.8751 11.3867 21.9568 11.165 21.9568Z" fill="#F8F8FF"/>
<path d="M20.7411 14.9333H4.45892C4.06227 14.9333 3.73334 14.5102 3.73334 14C3.73334 13.4898 4.06227 13.0667 4.45892 13.0667H20.7411C21.1377 13.0667 21.4667 13.4898 21.4667 14C21.4667 14.5102 21.1377 14.9333 20.7411 14.9333Z" fill="#F8F8FF"/>
</svg>
