<svg width="21" height="21" viewBox="0 0 21 21" fill="none" xmlns="http://www.w3.org/2000/svg">
<path d="M5.91502 19.25H15.085C17.5 19.25 18.4625 17.7712 18.5763 15.9688L19.0313 8.74125C19.1538 6.85125 17.6488 5.25 15.75 5.25C15.2163 5.25 14.7263 4.94375 14.4813 4.47125L13.8513 3.2025C13.4488 2.40625 12.3988 1.75 11.5063 1.75H9.50252C8.60127 1.75 7.55127 2.40625 7.14877 3.2025L6.51877 4.47125C6.27377 4.94375 5.78377 5.25 5.25002 5.25C3.35127 5.25 1.84627 6.85125 1.96877 8.74125L2.42377 15.9688C2.52877 17.7712 3.50002 19.25 5.91502 19.25Z" stroke="#6D6A6A" stroke-width="1.5" stroke-linecap="round" stroke-linejoin="round"/>
<path d="M9.1875 7H11.8125" stroke="#6D6A6A" stroke-width="1.5" stroke-linecap="round" stroke-linejoin="round"/>
<path d="M10.5 15.75C12.0662 15.75 13.3438 14.4725 13.3438 12.9062C13.3438 11.34 12.0662 10.0625 10.5 10.0625C8.93375 10.0625 7.65625 11.34 7.65625 12.9062C7.65625 14.4725 8.93375 15.75 10.5 15.75Z" stroke="#6D6A6A" stroke-width="1.5" stroke-linecap="round" stroke-linejoin="round"/>
</svg>
