<svg width="23" height="23" viewBox="0 0 23 23" fill="none" xmlns="http://www.w3.org/2000/svg">
<path d="M13.9018 7.58689C14.6736 7.58689 15.2993 6.96117 15.2993 6.18932C15.2993 5.41746 14.6736 4.79175 13.9018 4.79175C13.1299 4.79175 12.5042 5.41746 12.5042 6.18932C12.5042 6.96117 13.1299 7.58689 13.9018 7.58689Z" stroke="#265CB2" stroke-linecap="round" stroke-linejoin="round"/>
<path d="M16.302 10.3814C16.302 9.29968 15.2259 8.4248 13.901 8.4248C12.5761 8.4248 11.5 9.29968 11.5 10.3814" stroke="#265CB2" stroke-linecap="round" stroke-linejoin="round"/>
<path d="M14.8638 2.71216H8.13626C5.75001 2.71216 5.22293 3.90049 4.91626 5.35716L3.83334 10.5417H19.1667L18.0838 5.35716C17.7771 3.90049 17.25 2.71216 14.8638 2.71216Z" stroke="#265CB2" stroke-width="1.5" stroke-linecap="round" stroke-linejoin="round"/>
<path d="M21.0738 18.9942C21.1792 20.1155 20.2784 21.0834 19.1284 21.0834H17.3267C16.2917 21.0834 16.1479 20.6426 15.9659 20.0963L15.7742 19.5213C15.5059 18.7355 15.3334 18.2084 13.9534 18.2084H9.04669C7.66669 18.2084 7.46544 18.8026 7.22586 19.5213L7.03419 20.0963C6.85211 20.6426 6.70836 21.0834 5.67336 21.0834H3.87169C2.72169 21.0834 1.82086 20.1155 1.92627 18.9942L2.46294 13.158C2.59711 11.7205 2.87502 10.5417 5.38586 10.5417H17.6142C20.125 10.5417 20.4029 11.7205 20.5371 13.158L21.0738 18.9942Z" stroke="#265CB2" stroke-width="1.5" stroke-linecap="round" stroke-linejoin="round"/>
<path d="M3.83333 7.66675H2.875" stroke="#265CB2" stroke-width="1.5" stroke-linecap="round" stroke-linejoin="round"/>
<path d="M20.125 7.66675H19.1667" stroke="#265CB2" stroke-width="1.5" stroke-linecap="round" stroke-linejoin="round"/>
<path d="M5.75 14.375H8.625" stroke="#265CB2" stroke-width="1.5" stroke-linecap="round" stroke-linejoin="round"/>
<path d="M14.375 14.375H17.25" stroke="#265CB2" stroke-width="1.5" stroke-linecap="round" stroke-linejoin="round"/>
</svg>
