<svg width="15" height="15" viewBox="0 0 15 15" fill="none" xmlns="http://www.w3.org/2000/svg">
<path d="M13.125 3.73828C11.0438 3.53203 8.95 3.42578 6.8625 3.42578C5.625 3.42578 4.3875 3.48828 3.15 3.61328L1.875 3.73828" stroke="#E50E00" stroke-linecap="round" stroke-linejoin="round"/>
<path d="M5.3125 3.10625L5.45 2.2875C5.55 1.69375 5.625 1.25 6.68125 1.25H8.31875C9.375 1.25 9.45625 1.71875 9.55 2.29375L9.6875 3.10625" stroke="#E50E00" stroke-linecap="round" stroke-linejoin="round"/>
<path d="M11.7812 5.71289L11.375 12.0066C11.3062 12.9879 11.25 13.7504 9.50625 13.7504H5.49375C3.75 13.7504 3.69375 12.9879 3.625 12.0066L3.21875 5.71289" stroke="#E50E00" stroke-linecap="round" stroke-linejoin="round"/>
<path d="M6.45625 10.3125H8.5375" stroke="#E50E00" stroke-linecap="round" stroke-linejoin="round"/>
<path d="M5.9375 7.8125H9.0625" stroke="#E50E00" stroke-linecap="round" stroke-linejoin="round"/>
</svg>
