<svg width="25" height="25" viewBox="0 0 25 25" fill="none" xmlns="http://www.w3.org/2000/svg">
<path d="M21.875 8.07288H3.125C2.69792 8.07288 2.34375 7.71871 2.34375 7.29163C2.34375 6.86454 2.69792 6.51038 3.125 6.51038H21.875C22.3021 6.51038 22.6562 6.86454 22.6562 7.29163C22.6562 7.71871 22.3021 8.07288 21.875 8.07288Z" fill="#F8F8FF"/>
<path d="M21.875 13.2812H3.125C2.69792 13.2812 2.34375 12.9271 2.34375 12.5C2.34375 12.0729 2.69792 11.7188 3.125 11.7188H21.875C22.3021 11.7188 22.6562 12.0729 22.6562 12.5C22.6562 12.9271 22.3021 13.2812 21.875 13.2812Z" fill="#F8F8FF"/>
<path d="M21.875 18.4896H3.125C2.69792 18.4896 2.34375 18.1355 2.34375 17.7084C2.34375 17.2813 2.69792 16.9271 3.125 16.9271H21.875C22.3021 16.9271 22.6562 17.2813 22.6562 17.7084C22.6562 18.1355 22.3021 18.4896 21.875 18.4896Z" fill="#F8F8FF"/>
</svg>
