<svg width="33" height="24" viewBox="0 0 33 24" fill="none" xmlns="http://www.w3.org/2000/svg">
<path d="M3.64 13.516V10.842H0.952V9.288H3.64V6.628H5.236V9.288H7.924V10.842H5.236V13.516H3.64ZM13.059 15.168C11.701 15.168 10.749 14.678 9.92305 13.992L10.861 12.676C11.603 13.306 12.261 13.6 13.101 13.6C14.543 13.6 15.411 12.326 15.467 10.52C14.977 11.108 14.221 11.556 13.171 11.556C11.085 11.556 9.69905 10.338 9.69905 8.448V8.42C9.69905 6.502 11.183 5.032 13.353 5.032C14.585 5.032 15.383 5.382 16.069 6.068C16.797 6.796 17.259 7.874 17.259 9.806V9.834C17.259 12.984 15.691 15.168 13.059 15.168ZM13.423 10.114C14.669 10.114 15.411 9.302 15.411 8.35V8.322C15.411 7.3 14.613 6.516 13.367 6.516C12.149 6.516 11.421 7.328 11.421 8.336V8.364C11.421 9.386 12.205 10.114 13.423 10.114ZM20.5525 15V6.88L18.7885 7.37L18.4245 5.97L21.0565 5.13H22.2605V15H20.5525Z" fill="#1B1B1B"/>
</svg>
