<svg width="20" height="20" viewBox="0 0 20 20" fill="none" xmlns="http://www.w3.org/2000/svg">
<path d="M10 10.0001C12.3012 10.0001 14.1667 8.1346 14.1667 5.83341C14.1667 3.53223 12.3012 1.66675 10 1.66675C7.69882 1.66675 5.83334 3.53223 5.83334 5.83341C5.83334 8.1346 7.69882 10.0001 10 10.0001Z" stroke="#265CB2" stroke-width="1.5" stroke-linecap="round" stroke-linejoin="round"/>
<path d="M2.84167 18.3333C2.84167 15.1083 6.05001 12.5 10 12.5C10.8 12.5 11.575 12.6083 12.3 12.8083" stroke="#265CB2" stroke-width="1.5" stroke-linecap="round" stroke-linejoin="round"/>
<path d="M18.3333 15.0001C18.3333 15.2667 18.3 15.5251 18.2333 15.7751C18.1583 16.1084 18.025 16.4334 17.85 16.7167C17.275 17.6834 16.2167 18.3334 15 18.3334C14.1417 18.3334 13.3667 18.0084 12.7833 17.4751C12.5333 17.2584 12.3166 17.0001 12.15 16.7167C11.8416 16.2167 11.6667 15.6251 11.6667 15.0001C11.6667 14.1001 12.025 13.2751 12.6083 12.6751C13.2167 12.0501 14.0667 11.6667 15 11.6667C15.9833 11.6667 16.875 12.0918 17.475 12.7751C18.0083 13.3668 18.3333 14.1501 18.3333 15.0001Z" stroke="#265CB2" stroke-width="1.5" stroke-miterlimit="10" stroke-linecap="round" stroke-linejoin="round"/>
<path d="M16.2416 14.9832H13.7583" stroke="#265CB2" stroke-width="1.5" stroke-miterlimit="10" stroke-linecap="round" stroke-linejoin="round"/>
<path d="M15 13.7666V16.2583" stroke="#265CB2" stroke-width="1.5" stroke-miterlimit="10" stroke-linecap="round" stroke-linejoin="round"/>
</svg>
