<svg width="38" height="38" viewBox="0 0 38 38" fill="none" xmlns="http://www.w3.org/2000/svg">
<g opacity="0.3" filter="url(#filter0_b_529_711)">
<circle cx="18.9998" cy="19" r="19" fill="white"/>
</g>
<path d="M19.0038 10.4501C22.6935 10.4501 25.5143 13.5395 25.5143 17.4378L25.5105 18.9252C25.5109 19.1755 25.6727 19.4648 26.1116 19.9813C26.1667 20.0462 26.2186 20.1063 26.3321 20.2374C27.2035 21.2456 27.55 21.8293 27.55 22.7362C27.55 23.1442 27.5036 23.4612 27.3103 23.8415C26.8982 24.652 26.0177 25.1072 24.7 25.1072L22.5819 25.1078C22.0381 26.9512 20.8015 27.9572 19 27.9572C17.1985 27.9572 15.9619 26.9512 15.4181 25.1078L13.3 25.1072C11.9441 25.1072 11.0542 24.6397 10.6601 23.8013C10.4891 23.4377 10.45 23.1427 10.45 22.7362C10.45 21.8297 10.7959 21.246 11.6656 20.2379C11.7788 20.1069 11.8306 20.0467 11.8857 19.9818C12.3242 19.4647 12.4857 19.1752 12.4857 18.9244V17.4358C12.4857 13.5409 15.3129 10.4501 19.0038 10.4501ZM20.8561 25.1079H17.1439C17.511 25.9567 18.1032 26.3286 19 26.3286C19.8968 26.3286 20.489 25.9567 20.8561 25.1079ZM19.0038 12.0786C16.2464 12.0786 14.1143 14.4095 14.1143 17.4358V18.9244C14.1143 19.6799 13.8013 20.241 13.1277 21.0352C13.068 21.1056 13.0116 21.171 12.8987 21.3017C12.2798 22.0191 12.0786 22.3587 12.0786 22.7362C12.0786 22.9203 12.0916 23.0184 12.1339 23.1084C12.2348 23.323 12.531 23.4786 13.3 23.4786H24.7C25.4445 23.4786 25.7474 23.322 25.8585 23.1034C25.9066 23.0088 25.9214 22.9078 25.9214 22.7362C25.9214 22.3591 25.7199 22.0196 25.0999 21.3023C24.9868 21.1716 24.9303 21.1062 24.8705 21.0358C24.1956 20.2414 23.882 19.6803 23.882 18.9244L23.8857 17.4358C23.8857 14.4076 21.7593 12.0786 19.0038 12.0786Z" fill="#F2F2F2"/>
<circle cx="23.75" cy="12.5227" r="3.02273" fill="#E8261A"/>
<defs>
<filter id="filter0_b_529_711" x="-24.0002" y="-24" width="86" height="86" filterUnits="userSpaceOnUse" color-interpolation-filters="sRGB">
<feFlood flood-opacity="0" result="BackgroundImageFix"/>
<feGaussianBlur in="BackgroundImageFix" stdDeviation="12"/>
<feComposite in2="SourceAlpha" operator="in" result="effect1_backgroundBlur_529_711"/>
<feBlend mode="normal" in="SourceGraphic" in2="effect1_backgroundBlur_529_711" result="shape"/>
</filter>
</defs>
</svg>
