<svg width="10" height="10" viewBox="0 0 10 10" fill="none" xmlns="http://www.w3.org/2000/svg">
<path d="M9.15415 7.63766C9.15415 7.78766 9.12081 7.94183 9.04998 8.09183C8.97915 8.24183 8.88748 8.3835 8.76665 8.51683C8.56248 8.74183 8.33748 8.90433 8.08331 9.0085C7.83331 9.11266 7.56248 9.16683 7.27081 9.16683C6.84581 9.16683 6.39165 9.06683 5.91248 8.86266C5.43331 8.6585 4.95415 8.3835 4.47915 8.03766C3.99998 7.68766 3.54581 7.30016 3.11248 6.871C2.68331 6.43766 2.29581 5.9835 1.94998 5.5085C1.60831 5.0335 1.33331 4.5585 1.13331 4.08766C0.933313 3.61266 0.833313 3.1585 0.833313 2.72516C0.833313 2.44183 0.883313 2.171 0.983313 1.921C1.08331 1.66683 1.24165 1.4335 1.46248 1.22516C1.72915 0.962663 2.02081 0.833496 2.32915 0.833496C2.44581 0.833496 2.56248 0.858496 2.66665 0.908496C2.77498 0.958496 2.87081 1.0335 2.94581 1.14183L3.91248 2.50433C3.98748 2.6085 4.04165 2.70433 4.07915 2.796C4.11665 2.8835 4.13748 2.971 4.13748 3.05016C4.13748 3.15016 4.10831 3.25016 4.04998 3.346C3.99581 3.44183 3.91665 3.54183 3.81665 3.64183L3.49998 3.971C3.45415 4.01683 3.43331 4.071 3.43331 4.13766C3.43331 4.171 3.43748 4.20016 3.44581 4.2335C3.45831 4.26683 3.47081 4.29183 3.47915 4.31683C3.55415 4.45433 3.68331 4.6335 3.86665 4.85016C4.05415 5.06683 4.25415 5.28766 4.47081 5.5085C4.69581 5.72933 4.91248 5.9335 5.13331 6.121C5.34998 6.30433 5.52915 6.42933 5.67081 6.50433C5.69165 6.51266 5.71665 6.52516 5.74581 6.53766C5.77915 6.55016 5.81248 6.55433 5.84998 6.55433C5.92081 6.55433 5.97498 6.52933 6.02081 6.4835L6.33748 6.171C6.44165 6.06683 6.54165 5.98766 6.63748 5.93766C6.73331 5.87933 6.82915 5.85016 6.93331 5.85016C7.01248 5.85016 7.09581 5.86683 7.18748 5.90433C7.27915 5.94183 7.37498 5.996 7.47915 6.06683L8.85831 7.046C8.96665 7.121 9.04165 7.2085 9.08748 7.31266C9.12915 7.41683 9.15415 7.521 9.15415 7.63766Z" stroke="#265CB2" stroke-width="0.8" stroke-miterlimit="10"/>
</svg>
