<svg width="213" height="201" viewBox="0 0 213 201" fill="none" xmlns="http://www.w3.org/2000/svg">
<path d="M84.8267 26.5342H76.4825V28.3521V39.0533V40.877H94.1803V28.3521H85.4174L84.8267 26.5342Z" fill="#92ADD8"/>
<path d="M84.8267 53.8262H76.4825V55.6441V66.3453V68.169H94.1803V55.6441H85.4174L84.8267 53.8262Z" fill="#92ADD8"/>
<path d="M84.8267 81.1182H76.4825V82.9361V93.6373V95.461H94.1803V82.9361H85.4174L84.8267 81.1182Z" fill="#92ADD8"/>
<path d="M84.8267 108.41H76.4825V110.228V120.929V122.753H94.1803V110.228H85.4174L84.8267 108.41Z" fill="#92ADD8"/>
<path d="M84.8267 135.702H76.4825V137.526V148.221V150.045H94.1803V137.526H85.4174L84.8267 135.702Z" fill="#92ADD8"/>
<path d="M138.321 26.5342H129.977V28.3521V39.0533V40.877H147.681V28.3521H138.918L138.321 26.5342Z" fill="#92ADD8"/>
<path d="M173.034 28.3521L172.438 26.5342H164.094V28.3521V39.0533V40.877H181.792V28.3521H173.034Z" fill="#92ADD8"/>
<path d="M138.321 53.8262H129.977V55.6441V66.3453V68.169H147.681V55.6441H138.918L138.321 53.8262Z" fill="#92ADD8"/>
<path d="M172.438 81.1182H164.094V82.9361V93.6373V95.461H181.792V82.9361H173.034L172.438 81.1182Z" fill="#92ADD8"/>
<path d="M172.438 53.8262H164.094V55.6441V66.3453V68.169H181.792V55.6441H173.034L172.438 53.8262Z" fill="#92ADD8"/>
<path d="M138.321 81.1182H129.977V82.9361V93.6373V95.461H147.681V82.9361H138.918L138.321 81.1182Z" fill="#92ADD8"/>
<path d="M138.321 108.41H129.977V110.228V120.929V122.753H147.681V110.228H138.918L138.321 108.41Z" fill="#92ADD8"/>
<path d="M172.438 108.41H164.094V110.228V120.929V122.753H181.792V110.228H173.034L172.438 108.41Z" fill="#92ADD8"/>
<path d="M138.321 135.702H129.977V137.526V148.221V150.045H147.681V137.526H138.918L138.321 135.702Z" fill="#92ADD8"/>
<path d="M172.438 135.702H164.094V137.526V148.221V150.045H181.792V137.526H173.034L172.438 135.702Z" fill="#92ADD8"/>
<g opacity="0.5">
<path d="M84.8267 26.5342H76.4825V28.3521V39.0533V40.877H94.1803V28.3521H85.4174L84.8267 26.5342Z" fill="white"/>
<path d="M84.8267 53.8262H76.4825V55.6441V66.3453V68.169H94.1803V55.6441H85.4174L84.8267 53.8262Z" fill="white"/>
<path d="M84.8267 81.1182H76.4825V82.9361V93.6373V95.461H94.1803V82.9361H85.4174L84.8267 81.1182Z" fill="white"/>
<path d="M84.8267 108.41H76.4825V110.228V120.929V122.753H94.1803V110.228H85.4174L84.8267 108.41Z" fill="white"/>
<path d="M84.8267 135.702H76.4825V137.526V148.221V150.045H94.1803V137.526H85.4174L84.8267 135.702Z" fill="white"/>
<path d="M138.321 26.5342H129.977V28.3521V39.0533V40.877H147.681V28.3521H138.918L138.321 26.5342Z" fill="white"/>
<path d="M173.034 28.3521L172.438 26.5342H164.094V28.3521V39.0533V40.877H181.792V28.3521H173.034Z" fill="white"/>
<path d="M138.321 53.8262H129.977V55.6441V66.3453V68.169H147.681V55.6441H138.918L138.321 53.8262Z" fill="white"/>
<path d="M172.438 81.1182H164.094V82.9361V93.6373V95.461H181.792V82.9361H173.034L172.438 81.1182Z" fill="white"/>
<path d="M172.438 53.8262H164.094V55.6441V66.3453V68.169H181.792V55.6441H173.034L172.438 53.8262Z" fill="white"/>
<path d="M138.321 81.1182H129.977V82.9361V93.6373V95.461H147.681V82.9361H138.918L138.321 81.1182Z" fill="white"/>
<path d="M138.321 108.41H129.977V110.228V120.929V122.753H147.681V110.228H138.918L138.321 108.41Z" fill="white"/>
<path d="M172.438 108.41H164.094V110.228V120.929V122.753H181.792V110.228H173.034L172.438 108.41Z" fill="white"/>
<path d="M138.321 135.702H129.977V137.526V148.221V150.045H147.681V137.526H138.918L138.321 135.702Z" fill="white"/>
<path d="M172.438 135.702H164.094V137.526V148.221V150.045H181.792V137.526H173.034L172.438 135.702Z" fill="white"/>
</g>
<path d="M86.0769 200.719C102.072 200.719 115.038 198.023 115.038 194.697C115.038 191.372 102.072 188.676 86.0769 188.676C70.0822 188.676 57.116 191.372 57.116 194.697C57.116 198.023 70.0822 200.719 86.0769 200.719Z" fill="#92ADD8"/>
<path opacity="0.5" d="M86.0769 200.719C102.072 200.719 115.038 198.023 115.038 194.697C115.038 191.372 102.072 188.676 86.0769 188.676C70.0822 188.676 57.116 191.372 57.116 194.697C57.116 198.023 70.0822 200.719 86.0769 200.719Z" fill="white"/>
<path d="M107.537 66.8336C107.537 66.8336 107.422 63.7654 107.422 60.5768C107.422 57.3883 109.074 56.6829 110.135 56.6829C110.65 56.667 111.165 56.7054 111.672 56.7976C111.672 56.7976 112.245 51.7222 116.041 50.8964C119.838 50.0706 122.654 53.1388 123.95 52.0778C125.246 51.0169 120.882 51.1316 122.768 49.6004C124.655 48.0692 130.092 47.943 130.683 53.6147C131.273 59.2865 127.374 61.8787 125.487 62.3489C123.6 62.8192 120.996 59.3955 118.519 59.5159C116.041 59.6363 116.397 62.4693 114.86 63.6507C113.323 64.8321 112.142 64.2242 112.142 65.7726C112.142 67.321 111.436 68.1354 109.544 68.2501C107.651 68.3648 107.537 66.8336 107.537 66.8336Z" fill="#263238" stroke="#263238" stroke-width="0.5" stroke-linecap="round" stroke-linejoin="round"/>
<path d="M125.034 57.7031C125.034 57.7031 126.875 58.5519 129.277 56.9978C131.68 55.4436 130.121 51.9109 129.702 51.7676" stroke="white" stroke-width="0.5" stroke-linecap="round" stroke-linejoin="round"/>
<path d="M114.292 56.8541C114.292 56.8541 115.141 53.1781 118.106 53.3215C121.071 53.4648 120.652 56.1488 123.199 56.9975" stroke="white" stroke-width="0.5" stroke-linecap="round" stroke-linejoin="round"/>
<path d="M112.744 59.1598C112.744 59.1598 111.023 57.4394 109.498 57.8465C107.973 58.2537 108.649 60.9548 108.793 61.8036C108.936 62.6523 107.8 65.0552 107.8 65.0552" stroke="white" stroke-width="0.5" stroke-linecap="round" stroke-linejoin="round"/>
<path d="M72.8696 68.8463L77.1364 84.078L83.9666 83.7913L79.9808 68.4219L72.8696 68.8463Z" fill="#263238" stroke="#263238" stroke-width="0.5" stroke-linecap="round" stroke-linejoin="round"/>
<path d="M84.1098 97.3143L82.2575 98.3065C82.2575 98.3065 79.9635 91.1895 78.9886 88.4884C78.0137 85.7873 77.704 84.6461 77.704 84.6461H77.7499C78.2371 84.3645 78.6211 83.9339 78.8451 83.4176C79.0691 82.9014 79.1215 82.3268 78.9943 81.7786L78.6675 80.3277C78.7171 80.4602 78.7971 80.5793 78.9011 80.6753C79.005 80.7713 79.13 80.8417 79.2661 80.8807C79.4021 80.9197 79.5454 80.9263 79.6844 80.9C79.8235 80.8737 79.9544 80.8152 80.0668 80.7292C80.5428 80.4195 80.0381 77.2883 79.4646 76.1413C78.8911 74.9943 76.9929 75.8373 76.4251 76.1413C76.0071 76.3748 75.6215 76.662 75.2782 76.9958L74.8538 75.2753C74.8538 75.2753 76.9872 75.1319 77.4173 75.1319C77.8474 75.1319 79.4073 73.7097 78.6961 73.5663C77.985 73.423 73.9993 73.423 73.0014 74.2775C72.0036 75.1319 73.7126 78.5499 73.9993 79.261C74.286 79.9722 75.7198 87.2325 76.2932 89.2225C76.8667 91.2125 78.289 105.854 79.1607 107.155C80.0324 108.457 86.3636 102.436 86.3636 102.436L84.1098 97.3143Z" fill="white" stroke="#263238" stroke-width="0.5" stroke-linecap="round" stroke-linejoin="round"/>
<path d="M75.7657 78.0216C75.7657 78.0216 77.7671 76.3012 79.5679 76.7255" stroke="#263238" stroke-width="0.5" stroke-linecap="round" stroke-linejoin="round"/>
<path d="M76.3679 79.7147C76.7981 79.2756 77.311 78.9259 77.8769 78.6858C78.4428 78.4456 79.0506 78.3198 79.6654 78.3154" stroke="#263238" stroke-width="0.5" stroke-linecap="round" stroke-linejoin="round"/>
<path d="M99.2729 78.997C99.2729 78.997 96.6348 81.5146 95.4936 83.6479C94.3524 85.7813 83.5422 97.3141 83.5422 97.3141L86.6734 107.987L94.3581 101.437C94.3581 101.437 98.6248 93.185 99.766 87.9204C100.907 82.6558 101.917 78.8995 99.2729 78.997Z" fill="#92ADD8" stroke="#263238" stroke-width="0.5" stroke-linecap="round" stroke-linejoin="round"/>
<path d="M122.889 81.8303C122.889 81.8303 114.505 81.1191 109.785 80.4138C105.065 79.7084 99.8635 78.4066 99.2728 78.9972C98.6821 79.5879 94.9774 98.1344 91.3645 105.561C86.5816 115.396 83.2898 120.609 83.2898 120.609C86.6064 119.335 90.2109 119.004 93.7043 119.652C99.6054 120.713 108.793 126.986 108.793 126.986C108.793 126.986 113.208 117.484 117.928 107.924C122.648 98.3638 125.131 84.0726 125.131 83.264C125.131 82.4554 123.594 81.7098 122.889 81.8303Z" fill="#92ADD8" stroke="#263238" stroke-width="0.5" stroke-linecap="round" stroke-linejoin="round"/>
<path d="M119.299 81.5035C116.431 81.2339 112.509 80.821 109.785 80.4139C109.383 80.3565 108.988 80.2877 108.586 80.2246C108.021 81.8073 107.668 83.4581 107.537 85.1336C107.302 88.5745 109.309 92.3366 110.846 92.3366C112.383 92.3366 117.102 85.9652 118.163 84.1931C118.688 83.3658 119.072 82.4568 119.299 81.5035Z" fill="white" stroke="#263238" stroke-width="0.5" stroke-linecap="round" stroke-linejoin="round"/>
<path d="M111.551 73.8008C111.551 73.8008 110.375 79.8224 109.429 82.2998C108.483 84.7773 109.544 89.1472 110.725 89.2677C111.907 89.3881 116.632 83.2461 116.632 83.2461L118.284 76.3987C118.284 76.3987 112.262 74.747 111.551 73.8008Z" fill="white" stroke="#263238" stroke-width="0.5" stroke-linecap="round" stroke-linejoin="round"/>
<path d="M123.961 82.083C124.591 82.182 125.189 82.4263 125.707 82.7966C126.226 83.1669 126.651 83.653 126.949 84.2164C128.096 86.2121 139.474 105.137 139.474 105.137L131.784 107.133L121.111 97.5958C121.111 97.5958 118.553 94.3212 121.398 88.4888" fill="#92ADD8"/>
<path d="M123.961 82.083C124.591 82.182 125.189 82.4263 125.707 82.7966C126.226 83.1669 126.651 83.653 126.949 84.2164C128.096 86.2121 139.474 105.137 139.474 105.137L131.784 107.133L121.111 97.5958C121.111 97.5958 118.553 94.3212 121.398 88.4888" stroke="#263238" stroke-width="0.5" stroke-linecap="round" stroke-linejoin="round"/>
<path d="M101.756 100.016C101.756 100.016 99.0549 102.436 98.8886 103.003C98.7222 103.571 100.311 105.871 100.741 105.991C101.171 106.112 101.314 104.844 101.165 104.271C101.016 103.697 100.741 102.843 100.741 102.843L102.301 100.996C102.301 100.996 102.897 100.302 101.756 100.016Z" fill="white" stroke="#263238" stroke-width="0.5" stroke-linecap="round" stroke-linejoin="round"/>
<path d="M136.48 100.582C134.759 99.9485 132.929 99.6582 131.095 99.7278C128.108 99.8712 121.845 101.448 117.859 101.58C113.874 101.712 114.017 101.867 111.884 101.293C109.75 100.72 105.34 97.3135 104.342 97.3135C103.345 97.3135 100.357 102.291 100.787 102.859C101.217 103.427 104.767 106.134 105.765 106.3C106.763 106.466 108.896 105.153 108.896 105.153C108.896 105.153 119.568 106.719 124.552 107.292C129.536 107.866 135.655 108.571 138.069 107.005C140.483 105.44 139.755 102.005 136.48 100.582Z" fill="white" stroke="#263238" stroke-width="0.5" stroke-linecap="round" stroke-linejoin="round"/>
<path d="M104.319 99.0176L101.613 103.29" stroke="#263238" stroke-width="0.5" stroke-linecap="round" stroke-linejoin="round"/>
<path d="M106.309 100.583L103.178 104.855" stroke="#263238" stroke-width="0.5" stroke-linecap="round" stroke-linejoin="round"/>
<path d="M107.737 102.436L105.031 105.71" stroke="#263238" stroke-width="0.5" stroke-linecap="round" stroke-linejoin="round"/>
<path d="M108.873 105.137L108.586 104.145L107.164 104.999" stroke="#263238" stroke-width="0.5" stroke-linecap="round" stroke-linejoin="round"/>
<path d="M125.722 66.3634C125.722 66.3634 126.903 65.5376 127.138 67.7799C127.374 70.0222 126.565 71.5592 125.957 71.9147C125.349 72.2703 124.661 71.6739 124.661 71.6739L125.722 66.3634Z" fill="white" stroke="#263238" stroke-width="0.5" stroke-linecap="round" stroke-linejoin="round"/>
<path d="M108.73 66.7181C108.73 66.7181 106.843 64.2349 105.782 66.3625C104.721 68.4902 105.541 71.2028 106.963 72.2637C108.385 73.3246 109.796 71.7934 109.796 71.7934C109.796 71.7934 112.864 78.0502 115.462 78.2853C118.06 78.5204 122.918 76.6337 124.672 72.9748C126.427 69.316 126.204 63.4091 126.439 61.1668C126.674 58.9245 124.196 56.0914 119.591 56.0914C118.293 56.0599 117.005 56.319 115.82 56.8499C114.635 57.3808 113.584 58.1699 112.744 59.1596C112.919 59.2504 113.07 59.3803 113.187 59.5391C113.304 59.6979 113.382 59.8815 113.417 60.0755C113.451 60.2695 113.44 60.4689 113.385 60.6581C113.33 60.8474 113.233 61.0214 113.099 61.1668C112.153 62.4686 110.978 63.2944 110.622 64.1202C110.266 64.946 110.622 65.7719 110.146 66.483C109.67 67.1941 108.73 66.7181 108.73 66.7181Z" fill="white" stroke="#263238" stroke-width="0.5" stroke-linecap="round" stroke-linejoin="round"/>
<path d="M119.425 62.9514C119.322 63.6109 118.989 64.0983 118.685 64.0639C118.381 64.0295 118.209 63.4388 118.312 62.7793C118.416 62.1198 118.748 61.6323 119.052 61.6668C119.356 61.7012 119.528 62.2861 119.425 62.9514Z" fill="#263238"/>
<path d="M124.145 64.2297C124.042 64.8949 123.709 65.3767 123.405 65.3423C123.101 65.3079 122.929 64.7229 123.032 64.0577C123.135 63.3924 123.468 62.9107 123.772 62.9451C124.076 62.9795 124.248 63.5874 124.145 64.2297Z" fill="#263238"/>
<path d="M117.091 60.1812C117.091 60.1812 118.565 58.4608 120.469 59.4013" stroke="#263238" stroke-width="0.5" stroke-linecap="round" stroke-linejoin="round"/>
<path d="M123.331 60.7887C123.331 60.7887 125.493 60.0088 125.928 62.9565" stroke="#263238" stroke-width="0.5" stroke-linecap="round" stroke-linejoin="round"/>
<path d="M122.379 63.0371C122.379 63.0371 121.599 64.511 121.771 64.9411C121.943 65.3712 124.11 65.8931 123.417 66.501C122.723 67.1089 120.991 67.8028 120.469 67.4529" stroke="#263238" stroke-width="0.5" stroke-linecap="round" stroke-linejoin="round"/>
<path d="M115.881 67.7109C115.881 67.7109 116.489 69.7927 119.259 70.2228" stroke="#263238" stroke-width="0.5" stroke-linecap="round" stroke-linejoin="round"/>
<path d="M84.3106 119.651C84.3106 119.651 81.1449 122.811 76.5972 127.559C72.0495 132.308 60.379 148.325 61.5662 153.693C62.7533 159.061 92.0239 167.141 92.0239 167.141L95.1838 164.968C95.1838 164.968 77.5836 151.915 76.3965 148.945C75.2094 145.974 90.4411 136.288 90.4411 136.288L107.451 125.392C107.451 125.392 99.8348 112.528 84.3106 119.651Z" fill="#263238" stroke="#263238" stroke-width="0.5" stroke-linecap="round" stroke-linejoin="round"/>
<path d="M105.667 111.738C105.667 111.738 109.423 118.046 109.028 125.582C108.632 133.117 105.667 139.821 98.3495 139.626C91.0318 139.431 91.6282 128.352 94.0025 122.812C96.3767 117.272 96.7667 109.96 105.667 111.738Z" fill="#263238" stroke="#263238" stroke-width="0.5" stroke-linecap="round" stroke-linejoin="round"/>
<path d="M94.9659 115.493C94.9659 115.493 90.8139 134.676 88.8354 138.433C86.8569 142.189 83.2955 151.285 83.2955 151.285L87.6483 152.472C87.6483 152.472 93.7788 143.967 101.096 135.066C108.414 126.166 107.227 114.301 105.644 111.731C104.061 109.162 97.9538 109.363 94.9659 115.493Z" fill="#263238" stroke="#263238" stroke-width="0.5" stroke-linecap="round" stroke-linejoin="round"/>
<path d="M106.757 119.284C106.757 119.284 103.494 132.927 99.0434 138.565" stroke="white" stroke-width="0.5" stroke-linecap="round" stroke-linejoin="round"/>
<path d="M92.0239 167.113C92.0239 167.113 92.5974 170.279 91.4504 172.452C90.3035 174.626 87.4934 179.179 89.4719 179.374C91.4504 179.569 94.2204 176.604 96.1989 174.213C98.1774 171.821 98.3724 169.659 99.7602 167.904C101.148 166.15 95.2068 164.939 95.2068 164.939L92.6146 166.31L92.0239 167.113Z" fill="#92ADD8" stroke="#263238" stroke-width="0.5" stroke-linecap="round" stroke-linejoin="round"/>
<path d="M99.7374 167.905C100.208 167.297 99.8234 166.758 99.1123 166.311C97.7369 169.313 96.0573 172.167 94.1 174.827C92.0297 177.516 90.12 178.268 88.7724 178.354C88.7322 178.927 88.9043 179.323 89.4491 179.375C91.4276 179.575 94.1975 176.605 96.176 174.213C98.1546 171.822 98.3495 169.683 99.7374 167.905Z" fill="white" stroke="#263238" stroke-width="0.5" stroke-linecap="round" stroke-linejoin="round"/>
<path d="M83.3185 151.291C80.8756 150.97 78.5218 150.163 76.3965 148.917C73.2366 146.944 72.6402 146.944 72.6402 150.499C72.6402 154.055 76.9929 155.839 79.3672 157.622C81.7414 159.406 83.1235 160.392 84.9013 160.191C86.6791 159.991 87.6712 152.478 87.6712 152.478C87.6712 152.478 86.6848 150.499 83.3185 151.291Z" fill="#92ADD8" stroke="#263238" stroke-width="0.5" stroke-linecap="round" stroke-linejoin="round"/>
<path d="M72.6402 150.499C72.6402 154.061 76.9929 155.839 79.3672 157.622C81.7414 159.406 83.1005 160.369 84.8554 160.191C80.7091 157.553 80.2675 153.31 76.3965 148.917C73.2366 146.944 72.6402 146.944 72.6402 150.499Z" fill="white" stroke="#263238" stroke-width="0.5" stroke-linecap="round" stroke-linejoin="round"/>
<path d="M82.2346 155.644C81.2142 153.701 80.0406 151.843 78.7249 150.087C77.916 149.775 77.1368 149.391 76.3965 148.94C73.2366 146.967 72.6402 146.967 72.6402 150.523C72.6402 154.078 76.9929 155.862 79.3672 157.646C81.7414 159.429 83.1235 160.415 84.9013 160.215C85.3371 160.169 85.7214 159.681 86.0483 158.976C85.2009 158.748 84.4168 158.329 83.7559 157.751C83.0949 157.174 82.5746 156.453 82.2346 155.644Z" stroke="#263238" stroke-width="0.5" stroke-linecap="round" stroke-linejoin="round"/>
<path d="M23.2288 88.6875C23.2288 88.4008 23.2804 88.114 23.3091 87.833" stroke="#C7C7C7" stroke-width="0.2" stroke-miterlimit="10"/>
<path d="M23.504 86.1306C26.0364 65.9018 35.8529 47.2888 51.1167 33.7745C66.3805 20.2602 86.0456 12.7707 106.432 12.7074C126.819 12.6442 146.53 20.0115 161.877 33.4307C177.225 46.85 187.157 65.4017 189.815 85.6145" stroke="#C7C7C7" stroke-width="0.2" stroke-miterlimit="10" stroke-dasharray="2.98 2.98"/>
<path d="M189.935 86.4688C189.969 86.7498 190.004 87.0422 190.032 87.3232" stroke="#C7C7C7" stroke-width="0.2" stroke-miterlimit="10"/>
<path d="M34.5723 30.5537L27.1514 53.6938L56.5425 58.1441L61.5892 36.7818C61.5892 36.7818 43.7653 35.5946 34.5723 30.5537Z" fill="white" stroke="#C7C7C7" stroke-width="0.2" stroke-linecap="round" stroke-linejoin="round"/>
<path d="M65.1448 15.7181C65.1448 15.7181 79.0862 17.2034 89.1738 10.3789C89.1738 10.3789 101.63 20.1683 106.378 21.0629C106.378 21.0629 98.9632 29.0917 91.2498 31.443C91.2326 31.443 72.2445 22.8407 65.1448 15.7181Z" fill="white" stroke="#C7C7C7" stroke-width="0.2" stroke-linecap="round" stroke-linejoin="round"/>
<path d="M65.1448 15.7186C67.1915 14.1655 69.533 13.0455 72.0266 12.4268C72.2812 16.6779 73.9623 20.719 76.798 23.8964C76.798 23.8964 68.1785 19.2455 65.1448 15.7186Z" fill="#263238" stroke="#C7C7C7" stroke-width="0.2" stroke-linecap="round" stroke-linejoin="round"/>
<path d="M120.199 25.461C120.199 25.461 119.706 26.9463 122.671 29.418C124.019 30.565 127.058 30.9894 127.058 30.9894L135.03 21.0107C135.03 21.0107 121.948 22.7885 120.199 25.461Z" fill="#263238" stroke="#C7C7C7" stroke-width="0.2" stroke-linecap="round" stroke-linejoin="round"/>
<path d="M120.199 25.4608C124.584 23.9489 129.207 23.2455 133.842 23.3848C136.053 23.4925 138.218 24.0476 140.207 25.0166C142.196 25.9856 143.968 27.3483 145.415 29.0222L154.018 18.3381C154.018 18.3381 146.58 11.5194 138.264 11.8119C129.949 12.1044 120.773 23.0866 120.199 25.4608Z" fill="white" stroke="#C7C7C7" stroke-width="0.2" stroke-linecap="round" stroke-linejoin="round"/>
<path d="M170.178 31.167C170.178 31.167 164.839 45.2116 153.175 47.1901C153.175 47.1901 164.839 61.0341 171.366 62.6169C171.366 62.6169 184.619 56.6813 188.18 50.3558C188.18 50.3558 176.51 43.6288 170.178 31.167Z" fill="white" stroke="#C7C7C7" stroke-width="0.2" stroke-linecap="round" stroke-linejoin="round"/>
<path d="M42.8763 102.704L48.0606 80.7334H13.2616L12.5218 102.704H42.8763Z" fill="#263238" stroke="#C7C7C7" stroke-width="0.2" stroke-linecap="round" stroke-linejoin="round"/>
<path d="M17.1671 72.5967L17.0581 97.83L43.0943 100.474L45.0556 73.6462L17.1671 72.5967Z" fill="white" stroke="#C7C7C7" stroke-width="0.2" stroke-linecap="round" stroke-linejoin="round"/>
<path d="M8.5705 76.7881L12.5218 102.704H42.8763L40.9036 79.2541H24.6166L23.1313 76.2949L8.5705 76.7881Z" fill="#92ADD8" stroke="#C7C7C7" stroke-width="0.2" stroke-linecap="round" stroke-linejoin="round"/>
<path d="M173.596 102.704L168.412 80.7334H203.211L203.951 102.704H173.596Z" fill="#263238" stroke="#C7C7C7" stroke-width="0.2" stroke-linecap="round" stroke-linejoin="round"/>
<path d="M199.306 72.5967L199.415 97.83L173.378 100.474L171.417 73.6462L199.306 72.5967Z" fill="white" stroke="#C7C7C7" stroke-width="0.2" stroke-linecap="round" stroke-linejoin="round"/>
<path d="M207.902 76.7881L203.951 102.704H173.596L175.569 79.2541H191.862L193.342 76.2949L207.902 76.7881Z" fill="#92ADD8" stroke="#C7C7C7" stroke-width="0.2" stroke-linecap="round" stroke-linejoin="round"/>
</svg>
