<svg width="25" height="25" viewBox="0 0 25 25" fill="none" xmlns="http://www.w3.org/2000/svg">
<path d="M3.71875 5.35986H18.0949C19.8192 5.35986 21.2111 6.75177 21.2111 8.47607V11.9247" stroke="#292D32" stroke-width="1.3" stroke-miterlimit="10" stroke-linecap="round" stroke-linejoin="round"/>
<path d="M7.00116 2.07764L3.71875 5.36002L7.00116 8.64246" stroke="#292D32" stroke-width="1.3" stroke-miterlimit="10" stroke-linecap="round" stroke-linejoin="round"/>
<path d="M21.2111 19.5697H6.83496C5.11066 19.5697 3.71875 18.1778 3.71875 16.4535V13.0049" stroke="#292D32" stroke-width="1.3" stroke-miterlimit="10" stroke-linecap="round" stroke-linejoin="round"/>
<path d="M17.9287 22.8524L21.2111 19.57L17.9287 16.2876" stroke="#292D32" stroke-width="1.3" stroke-miterlimit="10" stroke-linecap="round" stroke-linejoin="round"/>
<path d="M14.2603 16.2193H10.1486C8.91511 16.2193 8.09277 15.6026 8.09277 14.1635V11.2853C8.09277 9.84624 8.91511 9.22949 10.1486 9.22949H14.2603C15.4938 9.22949 16.3161 9.84624 16.3161 11.2853V14.1635C16.3161 15.6026 15.4938 16.2193 14.2603 16.2193Z" stroke="#292D32" stroke-width="1.3" stroke-miterlimit="10" stroke-linecap="round" stroke-linejoin="round"/>
<path d="M14.2601 11.4912L12.9732 12.5191C12.5496 12.8563 11.8548 12.8563 11.4313 12.5191L10.1484 11.4912" stroke="#292D32" stroke-width="1.3" stroke-miterlimit="10" stroke-linecap="round" stroke-linejoin="round"/>
</svg>
