<svg width="26" height="26" viewBox="0 0 26 26" fill="none" xmlns="http://www.w3.org/2000/svg">
<path d="M3.00084 10.8334C2.53501 10.8334 2.16667 10.4651 2.16667 9.99925V7.49675C2.16667 4.56091 4.56084 2.16675 7.49667 2.16675H9.99917C10.465 2.16675 10.8333 2.53508 10.8333 3.00091C10.8333 3.46675 10.465 3.83508 9.99917 3.83508H7.49667C5.47084 3.83508 3.83501 5.48175 3.83501 7.49675V9.99925C3.83501 10.4651 3.45584 10.8334 3.00084 10.8334Z" fill="#F8F8FF"/>
<path d="M22.9992 10.8334C22.5442 10.8334 22.165 10.4651 22.165 9.99925V7.49675C22.165 5.47091 20.5183 3.83508 18.5033 3.83508H16.0008C15.535 3.83508 15.1667 3.45591 15.1667 3.00091C15.1667 2.54591 15.535 2.16675 16.0008 2.16675H18.5033C21.4392 2.16675 23.8333 4.56091 23.8333 7.49675V9.99925C23.8333 10.4651 23.465 10.8334 22.9992 10.8334Z" fill="#F8F8FF"/>
<path d="M18.5033 23.8332H16.9975C16.5425 23.8332 16.1633 23.4649 16.1633 22.9991C16.1633 22.5441 16.5317 22.1649 16.9975 22.1649H18.5033C20.5292 22.1649 22.165 20.5182 22.165 18.5032V17.0082C22.165 16.5532 22.5333 16.1741 22.9992 16.1741C23.4542 16.1741 23.8333 16.5424 23.8333 17.0082V18.5032C23.8333 21.4391 21.4392 23.8332 18.5033 23.8332Z" fill="#F8F8FF"/>
<path d="M9.99917 23.8334H7.49667C4.56084 23.8334 2.16667 21.4392 2.16667 18.5034V16.0009C2.16667 15.5351 2.53501 15.1667 3.00084 15.1667C3.46667 15.1667 3.83501 15.5351 3.83501 16.0009V18.5034C3.83501 20.5292 5.48167 22.1651 7.49667 22.1651H9.99917C10.4542 22.1651 10.8333 22.5334 10.8333 22.9992C10.8333 23.4651 10.465 23.8334 9.99917 23.8334Z" fill="#F8F8FF"/>
<path d="M19.9983 12.1658H18.525H7.47501H6.00168C5.53584 12.1658 5.16751 12.5449 5.16751 12.9999C5.16751 13.4549 5.53584 13.8341 6.00168 13.8341H7.47501H18.525H19.9983C20.4642 13.8341 20.8325 13.4549 20.8325 12.9999C20.8325 12.5449 20.4642 12.1658 19.9983 12.1658Z" fill="#F8F8FF"/>
<path d="M7.47499 15.1015V15.459C7.47499 17.2574 8.92666 18.709 10.725 18.709H15.275C17.0733 18.709 18.525 17.2574 18.525 15.459V15.1015C18.525 14.9715 18.4275 14.874 18.2975 14.874H7.70249C7.57249 14.874 7.47499 14.9715 7.47499 15.1015Z" fill="#F8F8FF"/>
<path d="M7.47499 10.8983V10.5408C7.47499 8.74244 8.92666 7.29077 10.725 7.29077H15.275C17.0733 7.29077 18.525 8.74244 18.525 10.5408V10.8983C18.525 11.0283 18.4275 11.1258 18.2975 11.1258H7.70249C7.57249 11.1258 7.47499 11.0283 7.47499 10.8983Z" fill="#F8F8FF"/>
</svg>
